<svg width="173" height="52" viewBox="0 0 173 52" fill="none" xmlns="http://www.w3.org/2000/svg">
<g filter="url(#filter0_d_10923_1171)">
<path d="M60.404 30V14.7885H65.2325V17.976C65.485 16.882 66.0005 16.0404 66.7789 15.4513C67.5784 14.8411 68.4621 14.5361 69.4299 14.5361C69.9348 14.5361 70.3556 14.5781 70.6922 14.6623V19.1437C70.1242 19.0806 69.6403 19.049 69.2405 19.049C66.5685 19.049 65.2325 20.7427 65.2325 24.13V30H60.404ZM84.6815 28.2011C83.1667 29.716 81.1259 30.4734 78.5591 30.4734C75.9923 30.4734 73.9409 29.716 72.4051 28.2011C70.8692 26.6863 70.1013 24.7507 70.1013 22.3943C70.1013 20.0379 70.8692 18.1128 72.4051 16.619C73.9409 15.1041 75.9923 14.3467 78.5591 14.3467C81.1259 14.3467 83.1667 15.1041 84.6815 16.619C86.2174 18.1128 86.9853 20.0379 86.9853 22.3943C86.9853 24.7507 86.2174 26.6863 84.6815 28.2011ZM78.5591 26.3707C79.6742 26.3707 80.5578 26.0025 81.21 25.2661C81.8623 24.5298 82.1884 23.5725 82.1884 22.3943C82.1884 21.2161 81.8623 20.2588 81.21 19.5224C80.5578 18.786 79.6742 18.4178 78.5591 18.4178C77.423 18.4178 76.5288 18.786 75.8766 19.5224C75.2454 20.2588 74.9298 21.2161 74.9298 22.3943C74.9298 23.5725 75.2454 24.5298 75.8766 25.2661C76.5288 26.0025 77.423 26.3707 78.5591 26.3707ZM95.3347 30.4734C92.852 30.4734 90.8743 29.737 89.4016 28.2643C87.9288 26.7705 87.1925 24.8138 87.1925 22.3943C87.1925 19.9747 87.9288 18.0286 89.4016 16.5558C90.8743 15.0831 92.852 14.3467 95.3347 14.3467C97.5859 14.3467 99.4163 14.9043 100.826 16.0193C102.236 17.1344 103.035 18.6493 103.224 20.5638H98.3959C98.0382 19.1332 97.0284 18.4178 95.3662 18.4178C94.3143 18.4178 93.4937 18.765 92.9046 19.4593C92.3155 20.1536 92.021 21.1319 92.021 22.3943C92.021 23.6566 92.3155 24.635 92.9046 25.3293C93.4937 26.0236 94.3143 26.3707 95.3662 26.3707C97.0284 26.3707 98.0382 25.6974 98.3959 24.3509H103.224C103.035 26.2234 102.236 27.7172 100.826 28.8323C99.4163 29.9264 97.5859 30.4734 95.3347 30.4734ZM119.655 30H113.753L108.925 23.4042V30H104.096V7.90866H108.925V21.1319L113.879 14.7885H119.56L113.501 21.984L119.655 30ZM133.681 21.6053C133.681 22.2365 133.639 22.9413 133.554 23.7197H122.319C122.361 24.7086 122.698 25.4765 123.329 26.0236C123.96 26.5706 124.813 26.8441 125.886 26.8441C127.358 26.8441 128.305 26.3707 128.726 25.4239H133.46C133.228 26.9177 132.408 28.138 130.998 29.0848C129.61 30.0105 127.905 30.4734 125.886 30.4734C123.298 30.4734 121.257 29.758 119.763 28.3274C118.269 26.8967 117.522 24.919 117.522 22.3943C117.522 19.9116 118.269 17.955 119.763 16.5243C121.257 15.0726 123.245 14.3467 125.728 14.3467C128.084 14.3467 129.999 15.02 131.472 16.3665C132.944 17.713 133.681 19.4593 133.681 21.6053ZM122.319 20.7216H128.915C128.894 19.7117 128.61 18.9333 128.063 18.3863C127.516 17.8392 126.727 17.5657 125.696 17.5657C124.665 17.5657 123.845 17.8603 123.235 18.4494C122.646 19.0174 122.34 19.7749 122.319 20.7216ZM142.472 26.2445C143.145 26.2445 143.703 26.2129 144.145 26.1498V30C143.219 30.1683 142.146 30.2525 140.926 30.2525C140.379 30.2525 139.895 30.2209 139.474 30.1578C139.053 30.0947 138.58 29.9579 138.054 29.7475C137.528 29.5161 137.097 29.211 136.76 28.8323C136.423 28.4536 136.129 27.9066 135.876 27.1912C135.645 26.4759 135.529 25.6343 135.529 24.6665V18.6072H133.131V14.7885H135.529V10.2756H140.358V14.7885H143.798V18.6072H140.358V23.6566C140.358 24.6876 140.536 25.3819 140.894 25.7395C141.252 26.0762 141.778 26.2445 142.472 26.2445ZM163.84 14.7885H168.637V36.3118H163.808V28.6745H163.84V27.854C163.419 28.6114 162.767 29.2321 161.883 29.716C161.021 30.1788 160.063 30.4103 159.011 30.4103C156.802 30.4103 155.056 29.6634 153.773 28.1696C152.489 26.6758 151.848 24.7507 151.848 22.3943C151.848 20.0799 152.51 18.1654 153.836 16.6505C155.161 15.1357 156.908 14.3783 159.075 14.3783C160.148 14.3783 161.105 14.6097 161.946 15.0726C162.788 15.5354 163.419 16.1666 163.84 16.9661V14.7885ZM160.4 26.4023C161.557 26.4023 162.451 26.0236 163.083 25.2661C163.714 24.5087 164.029 23.5514 164.029 22.3943C164.029 21.2581 163.714 20.3114 163.083 19.554C162.451 18.7965 161.557 18.4178 160.4 18.4178C159.306 18.4178 158.422 18.786 157.749 19.5224C157.097 20.2588 156.771 21.2161 156.771 22.3943C156.771 23.5725 157.097 24.5403 157.749 25.2977C158.422 26.0341 159.306 26.4023 160.4 26.4023Z" fill="#0D114F"/>
<path d="M150.158 29.4004C149.569 30.0105 148.833 30.3156 147.949 30.3156C147.066 30.3156 146.319 30.0105 145.709 29.4004C145.12 28.7902 144.825 28.0644 144.825 27.2228C144.825 26.3602 145.12 25.6343 145.709 25.0452C146.319 24.4351 147.066 24.13 147.949 24.13C148.833 24.13 149.569 24.4351 150.158 25.0452C150.769 25.6343 151.074 26.3602 151.074 27.2228C151.074 28.0644 150.769 28.7902 150.158 29.4004Z" fill="url(#paint0_linear_10923_1171)"/>
<rect x="4" width="43.832" height="43.832" rx="7.88976" fill="url(#paint1_linear_10923_1171)"/>
<g filter="url(#filter1_di_10923_1171)">
<path d="M37.258 32.4131H33.3487C33.1852 32.4131 33.0508 32.2854 33.0363 32.1226C33.0317 32.0711 33.0267 32.0211 33.0214 31.9726C32.7973 29.9298 30.5982 28.1753 28.5583 28.4238C27.0692 28.6052 25.8351 29.7293 24.3445 29.8976C23.3393 30.0111 22.4621 29.9594 21.4596 29.7629C20.5809 29.5908 19.7327 29.2757 18.952 28.8372C17.1132 27.8044 16.126 26.741 15.2107 25.1387C14.681 24.2114 14.303 23.1958 14.1655 22.1368C14.0517 21.2603 14.0589 20.4879 14.1544 19.6373C14.3004 18.3379 14.7168 17.0732 15.3964 15.956C16.3504 14.3877 17.3816 13.4126 19.0616 12.4997C19.7731 12.1131 20.5387 11.8305 21.3296 11.6568C23.3324 11.2169 24.629 11.3458 26.5759 11.956C27.6591 12.2955 28.8356 13.023 29.8362 13.9723C32.0243 16.0482 32.1911 19.3058 32.2464 22.3215C32.2516 22.601 31.996 22.8125 31.7209 22.7627C30.3696 22.5184 29.3981 22.4987 28.0703 22.7098C27.7143 22.7664 27.4214 22.398 27.5175 22.0506C27.5591 21.8998 27.5918 21.7518 27.6163 21.6059C28.0088 19.2711 26.4111 16.606 24.0547 16.3763C22.718 16.246 21.3943 16.7918 20.4138 17.8864C19.8286 18.4381 19.5049 19.3034 19.4028 20.2262C19.1383 22.6173 21.0941 24.9295 23.497 25.0439C23.9555 25.0657 24.3982 24.999 24.8505 24.8457C26.2759 24.3625 27.6654 23.6404 29.1662 23.7534C33.6812 24.0934 36.8523 26.1289 37.6866 31.9218C37.724 32.1814 37.5203 32.4131 37.258 32.4131Z" fill="#FAFAFA"/>
</g>
</g>
<defs>
<filter id="filter0_d_10923_1171" x="0" y="0" width="175" height="51.832" filterUnits="userSpaceOnUse" color-interpolation-filters="sRGB">
<feFlood flood-opacity="0" result="BackgroundImageFix"/>
<feColorMatrix in="SourceAlpha" type="matrix" values="0 0 0 0 0 0 0 0 0 0 0 0 0 0 0 0 0 0 127 0" result="hardAlpha"/>
<feOffset dy="4"/>
<feGaussianBlur stdDeviation="2"/>
<feComposite in2="hardAlpha" operator="out"/>
<feColorMatrix type="matrix" values="0 0 0 0 0 0 0 0 0 0 0 0 0 0 0 0 0 0 0.25 0"/>
<feBlend mode="normal" in2="BackgroundImageFix" result="effect1_dropShadow_10923_1171"/>
<feBlend mode="normal" in="SourceGraphic" in2="effect1_dropShadow_10923_1171" result="shape"/>
</filter>
<filter id="filter1_di_10923_1171" x="12.4491" y="11.3964" width="26.8743" height="24.2815" filterUnits="userSpaceOnUse" color-interpolation-filters="sRGB">
<feFlood flood-opacity="0" result="BackgroundImageFix"/>
<feColorMatrix in="SourceAlpha" type="matrix" values="0 0 0 0 0 0 0 0 0 0 0 0 0 0 0 0 0 0 127 0" result="hardAlpha"/>
<feOffset dy="1.63237"/>
<feGaussianBlur stdDeviation="0.816183"/>
<feColorMatrix type="matrix" values="0 0 0 0 0 0 0 0 0 0 0 0 0 0 0 0 0 0 0.07 0"/>
<feBlend mode="normal" in2="BackgroundImageFix" result="effect1_dropShadow_10923_1171"/>
<feBlend mode="normal" in="SourceGraphic" in2="effect1_dropShadow_10923_1171" result="shape"/>
<feColorMatrix in="SourceAlpha" type="matrix" values="0 0 0 0 0 0 0 0 0 0 0 0 0 0 0 0 0 0 127 0" result="hardAlpha"/>
<feOffset dy="1.63237"/>
<feGaussianBlur stdDeviation="1.02023"/>
<feComposite in2="hardAlpha" operator="arithmetic" k2="-1" k3="1"/>
<feColorMatrix type="matrix" values="0 0 0 0 0.219608 0 0 0 0 0.533333 0 0 0 0 1 0 0 0 0.13 0"/>
<feBlend mode="normal" in2="shape" result="effect2_innerShadow_10923_1171"/>
</filter>
<linearGradient id="paint0_linear_10923_1171" x1="193.169" y1="-59.0291" x2="181.57" y2="54.1337" gradientUnits="userSpaceOnUse">
<stop stop-color="#5498FF"/>
<stop offset="0.515625" stop-color="#428EFF"/>
<stop offset="1" stop-color="#297FFF"/>
</linearGradient>
<linearGradient id="paint1_linear_10923_1171" x1="56.463" y1="-66.3077" x2="23.6129" y2="48.5381" gradientUnits="userSpaceOnUse">
<stop stop-color="#5498FF"/>
<stop offset="0.515625" stop-color="#428EFF"/>
<stop offset="1" stop-color="#297FFF"/>
</linearGradient>
</defs>
</svg>
